<svg xmlns="http://www.w3.org/2000/svg" viewBox="0 0 80 80"><circle cx="40" cy="40" r="38" fill="#3c92d4" stroke="#1767a7" stroke-width="3"/><circle cx="40" cy="40" r="33" fill="#a9e3ff"/><circle cx="40" cy="40" r="28" fill="#f8fcff"/><g transform="translate(8 8) scale(.99)"><path d="M20 28V19a12 12 0 0 1 24 0v9" fill="none" stroke="#26364c" stroke-width="12"/><path d="M20 28V19a12 12 0 0 1 24 0v9" fill="none" stroke="#bdc9dc" stroke-width="7"/><rect x="12" y="27" width="40" height="31" rx="3" fill="#efa81c" stroke="#23324a" stroke-width="4"/><path d="M18 32h26v5H18z" fill="#ffe589"/><path d="M32 37a5 5 0 0 0-3 9l-2 7h10l-2-7a5 5 0 0 0-3-9z" fill="#172a45"/></g></svg>